<?xml version="1.0" standalone="no"?>
<!DOCTYPE svg PUBLIC "-//W3C//DTD SVG 20010904//EN"
 "http://www.w3.org/TR/2001/REC-SVG-20010904/DTD/svg10.dtd">
<svg version="1.0" xmlns="http://www.w3.org/2000/svg"
 width="500.000000pt" height="500.000000pt" viewBox="0 0 500.000000 500.000000"
 preserveAspectRatio="xMidYMid meet">
<metadata>
Created by potrace 1.16, written by Peter Selinger 2001-2019
</metadata>
<g transform="translate(0.000000,500.000000) scale(0.100000,-0.100000)"
fill="#000000" stroke="none">
<path d="M226 2913 c35 -109 76 -235 90 -280 l25 -83 64 0 63 0 29 83 c17 45
45 124 63 175 21 60 36 89 41 80 4 -7 33 -86 65 -175 l56 -163 64 0 63 0 52
163 c29 89 69 215 89 280 l38 117 -67 0 -67 0 -54 -170 c-29 -93 -56 -170 -59
-170 -4 0 -33 77 -65 170 l-60 170 -61 0 -61 0 -59 -170 c-33 -93 -62 -166
-66 -162 -4 4 -31 80 -59 170 l-52 162 -68 0 -68 0 64 -197z"/>
<path d="M1270 2830 l0 -280 185 0 185 0 0 55 0 55 -125 0 -125 0 0 60 0 60
110 0 110 0 0 55 0 55 -110 0 -110 0 0 55 0 54 123 3 122 3 3 53 3 52 -185 0
-186 0 0 -280z"/>
<path d="M1920 2830 l0 -282 168 4 c145 3 171 6 201 23 95 56 108 179 26 243
-22 18 -23 21 -9 33 43 35 57 124 29 179 -8 15 -31 39 -52 52 -35 21 -51 23
-200 26 l-163 4 0 -282z m278 164 c18 -12 22 -24 20 -52 -4 -47 -32 -62 -115
-62 l-63 0 0 65 0 65 68 0 c46 0 75 -5 90 -16z m22 -234 c28 -28 25 -64 -6
-89 -22 -17 -41 -21 -100 -21 l-74 0 0 65 0 65 80 0 c67 0 83 -3 100 -20z"/>
<path d="M2900 2840 l0 -70 620 0 620 0 0 70 0 70 -620 0 -620 0 0 -70z"/>
<path d="M2327 2496 c-72 -26 -107 -76 -107 -151 0 -90 49 -136 189 -174 81
-22 111 -43 111 -75 0 -31 -13 -45 -50 -56 -56 -16 -114 7 -129 51 -9 28 -13
29 -70 29 -55 0 -61 -2 -61 -20 0 -63 69 -141 142 -161 64 -17 167 -7 218 22
73 41 100 128 64 204 -21 46 -51 64 -174 105 -91 31 -106 39 -114 63 -15 41
18 70 78 70 48 0 80 -19 91 -54 5 -16 17 -19 66 -19 53 0 59 2 59 20 0 32 -37
96 -67 118 -58 41 -172 54 -246 28z"/>
<path d="M3845 2490 c-70 -28 -119 -72 -150 -134 -71 -146 -22 -313 115 -390
51 -29 62 -31 150 -31 79 0 102 4 136 22 64 34 103 71 132 127 23 44 27 63 27
136 0 68 -5 93 -22 126 -34 64 -66 97 -125 129 -71 39 -187 45 -263 15z m195
-122 c52 -26 90 -89 90 -148 0 -20 -10 -56 -22 -80 -26 -52 -89 -90 -148 -90
-20 0 -56 10 -80 23 -118 59 -115 244 4 298 55 25 102 24 156 -3z"/>
<path d="M2920 2220 l0 -280 65 0 65 0 0 116 0 115 108 -3 107 -3 3 -112 3
-113 59 0 60 0 0 280 0 280 -60 0 -60 0 0 -104 0 -105 -110 -3 -110 -3 0 108
0 107 -65 0 -65 0 0 -280z"/>
<path d="M4530 2221 l0 -281 60 0 59 0 3 78 3 77 90 5 c99 6 138 21 178 69 36
43 51 95 44 153 -8 66 -39 112 -95 146 -45 26 -55 27 -194 30 l-148 4 0 -281z
m279 145 c29 -26 36 -77 17 -114 -19 -37 -32 -42 -112 -42 l-64 0 0 83 c0 46
3 87 8 91 14 15 130 1 151 -18z"/>
<path d="M470 2130 l0 -70 615 0 615 0 0 70 0 70 -615 0 -615 0 0 -70z"/>
</g>
</svg>
